<?xml version="1.0" encoding="UTF-8"?>
<svg xmlns="http://www.w3.org/2000/svg" version="1.1" viewBox="0 0 1924.1 337.6">
  <defs>
    <style>
      .cls-1 {
        fill: #ced4da;
      }
    </style>
  </defs>
  <!-- Generator: Adobe Illustrator 28.7.1, SVG Export Plug-In . SVG Version: 1.2.0 Build 142)  -->
  <g>
    <g id="Layer_1">
      <path class="cls-1" d="M487.4,300.2c-71.8,49.8-142.4,49.4-213.1.4-82.1,63.1-182.9,37.5-233.1-21.1C-16.5,212-12,117.4,43.6,56,99.2-5.4,198.2-21.4,273.9,37.8c70.9-49.5,141.8-49.5,213.3,0,21.3-15.7,44.6-28,71.2-33.2,47.4-9.3,91.1-.7,130.7,27,7.4,5.2,11.9,5.6,19.8,0,103.1-72.4,246.5-10.1,262.9,115.7,11,84.5-41.6,163.5-124.3,184.5-50.9,12.9-98.9,3.9-142-27.3-1.9-1.4-3.8-2.8-6.4-4.8-31.2,24.2-66.4,37.3-106.2,37.3s-74.6-12.8-105.6-36.9h0ZM246.8,65.8c-46.8-40.2-126.4-34.6-171.4,11.8-49.4,50.9-50.2,129.3-1.9,180.8,45.6,48.6,124.7,55.1,173.3,14.1-46.3-68.5-46.5-137.2,0-206.7h0ZM726.6,272.6c53.3,42,131.4,33.5,177.8-19,44.5-50.5,40.9-130.2-8-177.7-51.8-50.3-128.3-45.3-169.5-10,46.1,68.7,46.3,137.4-.3,206.8h0ZM671.9,65.9c-50.7-40.3-122.6-31.5-157.4,0,46.6,69,46.2,137.9-.3,206.6,44.7,35.7,118.5,35.3,157.1-.7-48.4-65.9-43.9-147.6.5-206.1h0ZM302.1,65.6c46.7,69.7,46.4,138.5-.2,207.2,52.1,40.3,123.8,30.1,156.9-.8-46.3-68.8-46.1-137.4.1-206-38.2-35.9-113.5-36.1-156.9-.4h.1ZM699.3,243.4c31.8-40.7,31.8-106.9,0-149-32.4,35.9-32.3,113.6,0,149ZM274.5,94.1c-32.2,42.2-32.2,108.6-.4,149.4,30.1-36.3,35.1-102.4.4-149.4ZM486.8,94.2c-36.6,46.6-27.8,119.3.6,148.9,31.4-41.8,31.4-105.9-.6-148.9Z"/>
      <path class="cls-1" d="M1030.5,282.1c16.8-32,32.3-61.7,47.9-91.5,23-43.8,46.1-87.5,68.8-131.4,3.5-6.8,7.4-9.8,15.4-9.3,12.4.8,25-.2,37.4.5,3.2.2,7.7,2.6,9.2,5.3,38.3,72.2,76.2,144.5,114.2,216.9,1.4,2.6,2.4,5.4,4.1,9.3-18.6,0-36,.2-53.5-.3-2.4,0-5.4-3.5-6.9-6-6.4-11.4-12.6-23-18.3-34.8-2.4-4.9-5.1-6.8-10.6-6.8-39.4.3-78.9,0-118.3.4-3.6,0-8.7,3.2-10.6,6.4-6.5,10.9-12.2,22.4-17.7,34-2.5,5.2-5.6,7.5-11.6,7.4-15.8-.4-31.6-.1-49.5-.1h0ZM1226.3,193.7c-15.8-31.4-31.3-62.1-47.3-93.8-16,31.9-31.2,62.3-47,93.8h94.3Z"/>
      <path class="cls-1" d="M1761,128.3V51h49.5v230.4h-42.8c-1.3-5.3-2.5-10.7-4-17-23.1,17.4-48.7,24.3-76.4,22.7-32.3-1.8-61-12-76.2-42.7-15.8-31.8-15.6-64.7,4-95.3,15.4-24.1,39.9-33.1,67.1-35.6,26.9-2.5,53.1,0,78.8,14.8ZM1761,199.7c0-8.8-.6-17.6.2-26.3.7-7.9-2.8-11.2-9.5-14-19.6-8-39.9-9.8-60.5-7.3-24.2,3-38.7,20.9-39.4,46.2-.6,25.3,12.4,43.3,36,47.7,22.3,4.1,44.2,1.9,65.4-7,5.6-2.4,8.5-5.5,8-12.1-.6-9.1,0-18.2,0-27.3h0Z"/>
      <path class="cls-1" d="M1551,282c-12.9,0-25.6.2-38.4-.2-2,0-4.7-3-5.7-5.2-1.5-3.3-1.7-7.1-2.6-11.8-16.4,12.8-34.9,19.1-54.7,21.6-18.3,2.3-36.4.8-53.8-5.6-27-9.8-38.2-31.5-39.3-58.1-1.4-34.6-.3-69.3-.3-104.6h50.3v42.7c0,15.5-.5,31-.2,46.5.6,28.8,13,40.9,41.7,41.6,16.2.4,31.3-3.2,46-9.7,5.7-2.6,7.8-5.9,7.7-12.2-.4-32-.2-64.1-.3-96.1v-12.7h49.6v163.9h0Z"/>
      <path class="cls-1" d="M1923.9,281.5h-49V118.1h49v163.4Z"/>
      <path class="cls-1" d="M1875.1,50.8h49v41.8h-49v-41.8Z"/>
    </g>
  </g>
</svg>