<?xml version="1.0" encoding="UTF-8"?>
<svg xmlns="http://www.w3.org/2000/svg" version="1.1" viewBox="0 0 2500 464.8">
  <defs>
    <style>
      .cls-1 {
        fill: #ced4da;
      }
    </style>
  </defs>
  <!-- Generator: Adobe Illustrator 28.7.1, SVG Export Plug-In . SVG Version: 1.2.0 Build 142)  -->
  <g>
    <g id="Layer_1">
      <path class="cls-1" d="M426.9,464.8c-56.4-.2-112.2-6.4-167-19-65.4-15.1-127.4-38.5-181.6-79.5-29.6-22.4-54.6-48.9-68.3-84-21.8-55.9-6.6-104.9,31.3-148.3,36.3-41.6,83.3-67.5,133.8-87.4C272.6,8.2,374.4-2.1,478.1,3.9c76.8,4.4,151.5,19.9,222,51.9,48.3,21.9,92.4,49.8,124.4,93.4,39.7,54.1,38.4,118.8-2.8,171.8-26.1,33.6-59.4,57.8-96.7,77.2-72.5,37.8-150.4,56-231.3,62.7-22.2,1.9-44.5,2.6-66.8,3.8ZM453.3,435.9c31.2-.3,85.4-5.4,138.6-18.4,60-14.7,117.1-36,166.2-74.9,24.2-19.2,44.5-41.8,54.8-71.6,16.2-46.9,2.4-87.1-29.5-122.5-33.2-36.9-75.7-59.7-121.3-77.1-72.5-27.8-148.1-39.3-225.5-40.1-89.9-.8-177.4,11.8-260.6,47.3-39.9,17-76.5,39.3-105.5,72.3-26.9,30.6-40.4,65.4-31.6,106.6,6.2,28.9,22.8,51.8,43.7,71.7,41.7,39.8,92.9,62.3,147,79,65.2,20,132.2,27.9,223.8,27.7Z"/>
      <path class="cls-1" d="M1488.1,332.3v-199c11.3,0,22.7,0,34,0,47.4-.2,94.8,0,142.2-.7,29.3-.4,50.1,11,53.2,32.4,3.2,22.3,5.5,45.2-16.3,61.2,26,18.9,24.2,69.8,8.4,90.4-7.8,10.3-17.8,16.8-30.6,16.8-61.7.3-123.5.1-185.2,0-1.7,0-3.3-.7-5.7-1.3ZM1538.8,290.7c39,0,77.3.3,115.5-.4,4.1,0,9.8-4.7,12-8.7,8.6-15.8-.5-31.1-18.4-31.4-26.8-.4-53.6,0-80.4,0-9.6,0-19.2,0-28.7,0v40.6ZM1538.7,211.5c38.5,0,76.4.3,114.3-.2,9.8-.1,12-8.8,12-16.5,0-8.1-1.6-16.8-12.4-17.6-8.5-.6-17-.3-25.5-.3-29.3,0-58.7,0-88.5,0v34.6Z"/>
      <path class="cls-1" d="M958.5,271.7h55.4c1.1,18,13,19.8,28.1,19.3,29-.9,58.1-.2,87.1-.4,12.8,0,18.6-5.8,18.6-17.3,0-11.3-6.3-17.1-18.8-17.4-38.9-1-77.8-1.9-116.6-3-33.7-.9-53.9-21.4-54.6-55.2-.7-37,19.1-62.8,52.3-63.6,48.7-1.3,97.4-1.3,146.1,0,32.5.9,46.1,21.6,41.1,58.5h-54.3c-2.1-14.6-12.4-16.6-25.4-16.3-29.5.7-59,.1-88.6.2-13.7,0-19,4.8-19,16.6,0,12.2,7.1,15.8,18.2,16.2,38,1.3,75.9,3.6,113.9,4.7,40,1.1,62.9,31.7,56.5,73.9-4.8,31.8-21.8,45.6-54,45.8-42.9.2-85.8.4-128.6.3-41.5,0-60.2-20.1-57.3-62.3Z"/>
      <path class="cls-1" d="M2007.7,133c19.1,0,37.3,0,55.5,0,43.3,0,86.6,0,129.9.3,23.4.2,37.3,11.3,43.3,34.3,6.9,25.9,6.1,50.5-14.9,71.1,26.6,27.1,19.1,61.1,20.3,94.3h-53.2c0-15.2.1-29.8,0-44.5-.3-20-5.7-25.5-25.6-25.6-33.4-.1-66.8,0-101.5,0v69.9h-53.8v-199.8ZM2061.7,214.6c34.7,0,68.1,0,101.5,0,2.7,0,5.4,0,8-.6,10-2.4,17.6-7.1,16.5-19.1-1.2-11.9-8.2-16.7-20-16.6-22.3.2-44.7-.3-67-.4-12.8,0-25.6,0-38.9,0v36.6Z"/>
      <path class="cls-1" d="M1994.5,333.6c-20.7,0-39.7.6-58.6-.5-3.6-.2-8.5-6.4-10-10.9-6.8-19.4-19.5-25.1-39.8-23.4-25.3,2.1-50.9.9-76.4.3-8.6-.2-15.1,1.6-17.7,10.1-7.1,23-23.6,27.7-45.2,24.9-9.1-1.2-18.5-.2-29.6-.2,13.5-25.8,25.9-49.9,38.7-73.7,21.4-39.6,43.4-79,64.8-118.6,3.6-6.6,7-9.9,15.3-9.2,13.3,1,26.8-.6,40.1.4,4.7.3,11.2,3.6,13.4,7.5,34.2,62.1,67.9,124.5,101.7,186.8.8,1.5,1.4,3,3.1,6.6ZM1890,255.2c-11.9-23.1-23.2-44.9-35.3-68.2-12.4,23.9-23.7,45.4-35.5,68.2h70.8Z"/>
      <path class="cls-1" d="M1223.5,133.3c15.8,0,30.9-.6,45.9.5,2.6.2,6.8,7.1,6.9,11,.5,38,.3,76,.3,114,0,22.2,4.5,26.7,26.8,26.7,27.3,0,54.6.2,81.8,0,15.4-.1,20.8-5.7,20.9-21.3.2-42.9,0-85.8,0-129.8h53.1c0,16.3,0,32.2,0,48.2,0,33.1-.3,66.1,0,99.2.2,30.3-18.4,51.2-49,51.7-46,.8-92.1.9-138.1,0-31.4-.6-49-20-49.1-51.5-.2-46.5-.1-93-.2-139.5,0-2.6.4-5.2.6-9.2Z"/>
      <path class="cls-1" d="M2263.5,133.6h53.6c0,32.2,0,63.8,0,95.4,0,12.1-.2,24.2.3,36.2.5,13.4,6.6,19.9,20,20.1,30.4.4,60.8.4,91.3,0,12.9-.1,18.4-6.2,18.6-21.1.3-32.6-.1-65.3-.2-97.9,0-10.3,0-20.5,0-32.2h53.1c0,29.7,0,59.1,0,88.5,0,19.2-.1,38.5-.2,57.7,0,34.2-18.4,53-52.9,53.3-31.7.3-63.5,0-95.2,0-12.1,0-24.2.3-36.2,0-33.7-.8-51.9-19.5-52-53.1,0-48.3,0-96.5,0-146.9Z"/>
      <path class="cls-1" d="M661.4,247.9c-2.1-6.1-4.6-12.1-6.2-18.3-8.5-32.5-8.5-31.9-41.5-36.5-45.8-6.4-91.2-1-136.6,4.2-30.2,3.5-60.3,8.5-90.5,11.7-27.1,2.9-44.5,15.9-51.3,42.7-6.3,24.9-13,49.7-19.8,74.4-1,3.7-4,6.9-6.1,10.3-2.1-3.5-5.2-6.8-6.2-10.6-6.4-24.5-12.2-49.2-18.6-73.7-1.5-5.8-4.9-11.1-7.1-16.7-5.1-12.7-14.7-20.3-27.7-22.7-20.9-3.9-42-7.3-63-10.3-35.8-5.1-71.7-9.5-107.5-14.5-3.2-.4-6.1-3.2-9.1-4.8,3.2-2,6.2-5.3,9.6-5.7,46.5-6.6,93.1-12.7,139.6-19.3,11.3-1.6,22.7-4.2,33.6-7.5,12.4-3.8,22.4-11.5,27-24.2,7.9-21.9,15.4-44,23.3-66,1.1-3.2,3.7-5.8,5.7-8.7,2.4,2.8,5.9,5.2,7,8.4,6.2,17.9,12,35.9,17.7,54,7.4,23.3,23,36.9,47.3,40.1,45.2,6,90.6,11.2,135.8,18,35.3,5.3,70,2.7,105-1.7,17.9-2.2,29.3-10.2,33.9-28.1,1.5-6,5.9-11.2,9-16.8,2.9,5.5,7,10.6,8.4,16.5,4.6,18.7,15.7,27.7,35.1,28.7,14.1.8,28.1,3.9,42.1,6.5,2.9.5,5.3,3.2,8,4.9-2.5,1.8-4.7,4.8-7.5,5.3-14.3,2.8-28.6,5.4-43,7.2-21.9,2.8-25.9,5.9-32.4,27-2.7,8.8-6.1,17.5-9.2,26.2-1.5,0-3.1.1-4.6.2Z"/>
      <path class="cls-1" d="M413.7,413.6c-2.5-7.8-5.8-15.5-7.4-23.6-3.7-18.6-13.3-29.1-33.4-29.9-14.1-.5-28.2-3.1-42.3-5.3-5.4-.8-10.7-3-16-4.5-.1-1.2-.3-2.3-.4-3.5,3.6-1.4,7.2-3.7,11-4.2,16.4-2.3,32.9-4.1,49.3-6.3,21.4-2.8,26.6-7.7,32.5-28.7,1.8-6.2,4.6-12.2,6.9-18.3,1.1,0,2.3,0,3.4.1,1.9,4.5,4.5,8.8,5.5,13.5,5,22.3,18.5,32.1,41.3,34.3,32.5,3.1,64.6,5.7,97-.8,14.1-2.8,23.7-8.1,27-23,1.4-6.1,5.7-11.6,8.7-17.4,3.3,5.9,8,11.4,9.6,17.7,3.5,13.4,11.6,19.8,24.9,21.2,17.1,1.9,34.2,4.2,51.2,6.8,3.1.5,5.9,3.3,8.8,5-3.1,1.9-6,5-9.3,5.5-16,2.5-32.1,4.7-48.3,6.4-13.6,1.5-22.7,7.5-26,21.5-1.1,4.9-3.2,9.6-5.3,14.2-.9,1.9-3.1,4.3-4.6,4.3-1.6,0-3.7-2.5-4.5-4.4-2.2-4.9-4.3-10-5.5-15.2-3.1-13.3-12.3-18-24.8-20.1-32.7-5.4-65.2-5.1-97.9.8-34.3,6.3-31.7,2.2-42.1,39-1.4,5-3.4,9.8-5.2,14.7-1.5,0-3,0-4.5,0Z"/>
      <path class="cls-1" d="M710.5,320.6c-2.3-6-5.8-11.9-6.7-18.1-2.8-18.5-14-24.8-31.6-27.9-34.3-6-67.3-.3-100.6,6.1-10.1,1.9-15.6,8.5-18.2,18.2-2.9,10.9-6.2,21.7-9.4,32.5-1.1,0-2.2.2-3.3.2-1.8-3.2-4.1-6.2-5.3-9.7-2.9-8.3-5.7-16.6-7.7-25.2-2.3-10.4-8.6-15.5-18.7-17-18.4-2.7-36.8-5.4-55.1-8.4-5-.8-9.8-2.9-14.7-4.4,0-1.2,0-2.4,0-3.7,4.5-1.3,9-3.2,13.7-3.9,17.7-2.7,35.4-5,53.1-7.3,12.4-1.7,20.1-8.4,23.6-20.5,2.5-8.6,6-16.9,9.1-25.3,1.2-.1,2.4-.3,3.6-.4,2.7,6.5,6.2,12.7,7.9,19.5,4.1,16.4,13.9,25.1,30.8,27.5,32.6,4.7,65,8.3,97.6.5,11.4-2.7,19.9-7.3,23.2-19.6,1.7-6.2,5.3-12,8.1-17.9,1.2-.1,2.4-.3,3.6-.4,2.7,5.8,6,11.3,7.8,17.3,3.1,10.5,9.2,16.7,20.3,18.5,13.6,2.3,27.2,5.3,40.7,8.2,3,.6,5.9,2.2,8.8,3.3,0,1,.1,1.9.2,2.9-3.4,1.4-6.6,3.4-10.1,4.1-11.6,2.2-23.3,4-35,5.7-14.2,2-22.2,10.2-25.3,24-1.6,7-4.1,13.9-6.2,20.8-1.5.2-3,.3-4.5.5Z"/>
    </g>
  </g>
</svg>