<?xml version="1.0" encoding="UTF-8"?>
<svg xmlns="http://www.w3.org/2000/svg" version="1.1" viewBox="0 0 1745.9 274.5">
  <defs>
    <style>
      .cls-1 {
        fill: #ced4da;
      }
    </style>
  </defs>
  <!-- Generator: Adobe Illustrator 28.7.1, SVG Export Plug-In . SVG Version: 1.2.0 Build 142)  -->
  <g>
    <g id="Layer_1">
      <path class="cls-1" d="M957.4,240.2c15.9-22.6,34.2-35.7,60.9-35.3,37.6.5,75.2-.8,112.8.5,18.6.6,19.3-9.2,19-22.9-.2-13,1-23.8-18.4-23.3-47.2,1.2-94.3.4-141.5.4h-24.2c0-37.2-.3-72.5.5-107.9,0-3.6,6-10.2,9.3-10.2,69.5-.6,139-.5,209.1-.5-7.2,23.5-25.1,36.7-48.9,36.9-34.2.3-68.4.2-102.5.2s-30.3,10-29.5,30.1c.2,3.4.8,6.7,1.7,13.6h48.5c38.3,0,76.6.5,114.9-.2,14.1-.2,19.5,4.5,19,19-.8,28.7-.5,57.4-.2,86.1,0,10.6-2.9,16.8-14.9,16.7-69.1-.3-138-.4-207.1-.6-1.9,0-3.7-1.1-8.2-2.7h-.2Z"/>
      <path class="cls-1" d="M150.9,274.1c-15.4-76-30.8-152-47.2-232.8-20.2,6.5-38,12.2-55.7,17.9.2,2.4.2,4.9.4,7.3-11.1-6.9-22.2-13.8-37-23.1,42.1-14.1,80.6-16.1,119.2-14.1,7.7.4,14.8,10.2,24.2,17.2,9.5-23.2,30.2-18.8,48.7-17.5,28.4,2.1,56.6,6.1,84.9,9.3.6,2.5,1.1,4.9,1.7,7.4-10.7,6.9-21.4,13.8-32.1,20.8.2-2.3.3-4.7.4-7.1-18.3-5.7-36.5-11.4-56.7-17.8-16.5,81.3-32,157.1-47.4,233-1.1-.2-2.3-.2-3.4-.4Z"/>
      <path class="cls-1" d="M611.6,42.1c-9.9,22-22.9,35.2-45.1,36.3-15.7.8-31.4.7-47.2.3-12.3-.3-16.7,4.8-16.5,17.2.5,42.4,0,84.8.3,127.2.2,12.6-1.3,20.5-17.3,20.5-15,0-20.4-4.5-20-20,.9-40.3-.7-80.7.7-121,.7-19.6-6.6-25.6-24.8-23.9-11.5,1.1-23.2,0-34.8,0-24.2,0-39.1-12.5-49.1-36.6h254,0Z"/>
      <path class="cls-1" d="M1707.8,239.9c0-20.3-.5-41.3.2-62.3.5-12.3-3.9-17.2-16.3-17.2-39,.4-77.9.2-116.8,0-11.2,0-16,4.6-15.6,16,.5,17.1-.5,34.2.3,51.2.7,15.3-8.7,15.6-19.9,15.9-12,.4-17.5-3.6-17.2-16.4.5-29.3.5-58.8,0-88.1-.2-12,3.5-17.3,16.2-17.2,63.5.5,127.1.6,190.5.4,11.8,0,15.3,5,15,16-.5,26,0,51.9,0,77.9,0,29.7-2.7,31.6-36.5,23.6h0Z"/>
      <path class="cls-1" d="M1461.7,205.9c-9.3,24.7-22.3,37.7-45.3,37.6-50.6,0-101-.6-151.6,0-14.7.2-18.7-5.3-18.6-19.1.5-55.3.6-110.6,0-165.9-.2-15,6.2-17.9,19.6-18.3,15.1-.5,18.3,5.9,18.1,19.4-.6,42.4.3,84.7-.6,127-.4,15.5,4.8,19.9,19.9,19.6,44.4-.9,88.8-.3,133.2-.3h25.4-.2Z"/>
      <path class="cls-1" d="M670.8,122.8h228.2c-9.2,26-23.2,36.8-46.9,36.9-45.1.2-90.1.2-135.2,0-24.1,0-38.4-11.5-46-36.9h0Z"/>
      <path class="cls-1" d="M1520,42.2h225.9c-6,22.9-20.5,36-42.7,36.3-46.3.6-92.8.7-139.1.2-23.2-.2-37.1-12.1-44.1-36.5h0Z"/>
      <path class="cls-1" d="M669.9,206.5h229.3c-6.8,22.2-20.1,35.7-40.9,36.3-49.2,1.4-98.4,1.4-147.6,0-20.8-.6-33.9-14.6-40.8-36.2h0Z"/>
      <path class="cls-1" d="M899.1,41.7c-7.1,22.1-20.2,35.7-41.1,36.3-49.1,1.2-98.2,1.3-147.4,0-21.1-.5-33.4-15-40.6-36.3,0,0,229.1,0,229.1,0Z"/>
      <path class="cls-1" d="M305.1,26.8c-6.6,0-13.5,1.2-19.8-.2C196.5,6.8,107.8,6.6,19,27,13,28.4,6.2,26,0,21,101.6-6.2,203.1-6.2,304.7,16.3c.2,3.5.3,7,.5,10.5Z"/>
    </g>
  </g>
</svg>