<?xml version="1.0" encoding="UTF-8"?>
<svg xmlns="http://www.w3.org/2000/svg" version="1.1" viewBox="0 0 2500 534">
  <defs>
    <style>
      .cls-1 {
        fill: #ced4da;
      }
    </style>
  </defs>
  <!-- Generator: Adobe Illustrator 28.7.1, SVG Export Plug-In . SVG Version: 1.2.0 Build 142)  -->
  <g>
    <g id="Layer_1">
      <path class="cls-1" d="M181.9,0c-11.4,21-22.8,42-34.1,63.1-20,37.2-39.9,74.4-59.9,111.6-15.7,29.3-31.4,58.5-47.2,87.7-1.3,2.4-1.3,4.3,0,6.7,24.8,46.1,49.6,92.3,74.4,138.4,14.9,27.7,29.8,55.5,44.7,83.2.9,1.6,1.8,3.1,3.1,5.4,4.2-7.8,8.1-14.9,11.9-22,33.7-62.7,67.3-125.3,100.9-188,3-5.7,6-11.4,9.2-17,1.3-2.3,1.4-4.2.1-6.7-20.9-38.7-41.7-77.4-62.5-116.1-2.2-4-4.5-8-6.4-12.1-.6-1.2-.7-3.2-.1-4.3,6.2-11.8,12.5-23.5,18.8-35.2.2-.4.4-.7.9-1.5,1.3,2.2,2.4,3.9,3.3,5.6,29.4,54.7,58.8,109.4,88,164.2.8,1.4.7,3.9,0,5.4-34.9,64.5-69.8,128.8-104.8,193.2-12.5,23-25,46-37.4,69.1-1.2,2.3-2.6,3.3-5.2,3.3-11.2-.1-22.3,0-33.5-.2-1.5,0-3.7-1.4-4.5-2.8-36.1-67-72.1-134.1-108.1-201.2-10.8-20-21.5-40.1-32.4-60.1-1.6-2.8-1.6-5.1,0-7.9,28.1-52,56-104.1,84-156.2C103.7,71.1,122.2,36.5,140.7,2c.3-.6.5-1.3.8-2,13.5,0,26.9,0,40.4,0Z"/>
      <path class="cls-1" d="M267,0c27.4,51.1,54.9,102.1,82.3,153.2,19.5,36.3,39,72.7,58.5,108.9,1.5,2.7,1.3,4.8-.2,7.5-30.5,56.7-61,113.5-91.4,170.2-16.4,30.5-32.8,61-49.2,91.5-.6,1.1-1.9,2.5-3,2.5-12.4.2-24.9.1-38.1.1,2.1-4,3.8-7.4,5.6-10.7,34.7-64.6,69.3-129.1,104-193.7,10.8-20,21.5-40.1,32.4-60.1,1.5-2.7,1.4-4.9,0-7.5-34.3-63.6-68.5-127.3-102.6-191-5.6-10.5-11.2-21-16.8-31.4-.7-1.2-1.4-2.4-2.5-4.2-4.1,7.6-8,14.8-11.8,21.9-24.1,44.9-48.2,89.8-72.3,134.7-12.7,23.6-25.3,47.2-38.1,70.7-1.4,2.5-.9,4.4.3,6.7,22.7,42.2,45.4,84.5,68.2,126.7,1.4,2.6,1.3,4.5,0,7-5.8,10.4-11.3,20.9-16.9,31.4-.6,1.1-1.3,2.2-2.3,3.9-4.3-7.9-8.4-15.4-12.4-22.9-20.1-37.4-40.2-74.9-60.3-112.4-6.2-11.6-12.5-23.2-18.6-34.8-.7-1.3-.7-3.7,0-5,26.7-49.4,53.5-98.6,80.3-147.9,20.6-38,41.2-76,61.8-114,.2-.4.2-.8.3-1.2,14.3,0,28.7,0,43,0Z"/>
      <path class="cls-1" d="M490.9,153.9c22.8.3,45.7.7,68.5.9,33.3.3,66.7-.6,99.9.9,40.8,1.8,68.1,23,77.5,57.6,10.4,38.3-3.2,74-36.6,96.8-1.6,1.1-3.2,2.4-5.4,4.1,8.9,15.2,17.7,30.2,26.5,45.2,8.8,15,17.7,30,27.6,47-11.7,0-21.8,0-32,0-7.7,0-15.6-1-23.2.2-15.3,2.5-23.6-3.7-30.3-17.3-9.3-19-20.7-36.9-31.4-55.2-1.5-2.6-4.5-6.1-6.9-6.1-24.8-.4-49.6-.3-75.2-.3v78.6h-59c0-84.1,0-168.3,0-252.4ZM550.3,276.7c2.7.3,4.9.7,7.2.7,26.9,0,53.8.1,80.6,0,16,0,24.5-5.6,27.2-21.1,1.8-10.5,1.3-22.2-1.1-32.6-3.1-13.6-11-18.5-25-18.8-16.8-.3-33.6,0-50.4,0-12.7,0-25.3,0-38.5,0v71.8Z"/>
      <path class="cls-1" d="M2500,204.4h-93.6v201.5h-65.3v-200.8h-97.2v-50.3c4.1,0,8.1,0,12,0,78.4,0,156.7,0,235.1,0,3,0,6-.5,9-.8v50.5Z"/>
      <path class="cls-1" d="M1151.1,248.1v157.6h-64.4v-250.9c13.1,0,26.2,1.4,38.9-.3,19.3-2.6,31.3,5.5,43.5,19.7,39.3,45.6,80.1,89.9,120.2,134.8,1.1,1.2,2,2.7,4.9,3.3v-156.5h65v250.5c-20.4,0-40.8.2-61.2-.3-2.9,0-6.3-3.4-8.6-6-43.9-49.2-87.6-98.5-131.4-147.8-1.5-1.7-2.7-3.9-4-5.8-1,.6-2,1.1-3,1.7Z"/>
      <path class="cls-1" d="M1397,406.3c13.4-30.6,26-59.4,38.7-88.3,22.9-51.9,46-103.8,68.7-155.8,2.4-5.4,5-7.7,11.1-7.6,24.5.3,49.1,0,73.6.4,3.1,0,7.9,2.6,9.1,5.3,35.9,80.7,71.5,161.5,107.1,242.3.4.8.2,1.9.4,3.7-23.4,0-46.5.2-69.6-.3-2.2,0-5.2-3.6-6.3-6.1-4.1-9.2-7.8-18.6-11-28.1-2-5.9-5.1-8.3-11.6-8.3-37,.3-74,.2-110.9,0-5.5,0-8.6,1.5-10.4,6.9-2.4,7.3-6.7,14.2-8.3,21.6-2.7,12.3-9.5,15.2-21.3,14.5-19.1-1.1-38.3-.3-59-.3ZM1508.6,312.9h86.5c-14.4-36.6-28.4-72.2-43.3-109.8-14.9,37.8-28.9,73.3-43.3,109.8Z"/>
      <path class="cls-1" d="M1023.1,155.5v48.9h-149.7v50h133.6v50h-133.6v50.9h152.8v50.5h-217.7v-250.3h214.6Z"/>
      <path class="cls-1" d="M1930.9,155.5h65.2c0,4.2,0,7.8,0,11.4,0,51.8-.3,103.6,0,155.5.3,36.7-16.9,61.4-50.1,75.2-35.5,14.7-72.8,14.8-110.3,11.6-23-2-45.1-7.7-64.8-20.2-21.8-13.9-33.3-34.5-33.6-59.9-.8-56.5-.2-113-.2-169.6,0-1,.3-2,.6-3.8h64.4c0,4.1,0,8,0,11.9,0,48.5,0,96.9,0,145.4,0,20.7,6.5,30.1,26.1,36.8,25.3,8.6,51,9,76.3,0,19.4-6.9,26.9-15.9,26.6-36.3-.8-48.8-.3-97.6-.3-146.4,0-3.6,0-7.2,0-11.6Z"/>
      <path class="cls-1" d="M2067.3,405.9v-250.4h64.5v200h143.2v50.4h-207.6Z"/>
    </g>
  </g>
</svg>